<svg width="251" height="229" viewBox="0 0 251 229" fill="none" xmlns="http://www.w3.org/2000/svg">
<g filter="url(#filter0_d_0_1)">
<path d="M205.5 110.5C205.5 148.411 169.894 179.5 125.5 179.5C81.1057 179.5 45.5 148.411 45.5 110.5C45.5 72.5891 81.1057 41.5 125.5 41.5C169.894 41.5 205.5 72.5891 205.5 110.5Z" stroke="white" stroke-width="3" shape-rendering="crispEdges"/>
</g>
<g filter="url(#filter1_b_0_1)">
<path d="M104.844 146.594C103.469 146.594 102.073 146.281 100.656 145.656C99.2604 145.052 98.0625 144.135 97.0625 142.906C96.0625 141.698 95.5625 140.479 95.5625 139.25C95.5625 136.667 96.4167 135.167 98.125 134.75L112.406 130.594C113.26 127.385 113.812 124.885 114.062 123.094L114.594 120.406C112.448 122.49 109.833 124.333 106.75 125.938C103.667 127.542 101.031 128.344 98.8438 128.344C93.9479 128.344 90.1875 124.844 87.5625 117.844L83.8125 120.031C82.6458 120.698 81.8542 121.156 81.4375 121.406C81.0208 121.656 80.625 121.875 80.25 122.062C79.5417 122.458 79.0729 122.656 78.8438 122.656C78.5938 122.656 78.3854 122.469 78.2188 122.094C78.0521 121.698 77.9688 121.198 77.9688 120.594C77.9688 119.969 78.1875 119.573 78.625 119.406C79.0625 119.135 80.0208 118.604 81.5 117.812C85.0833 115.917 86.9167 114.823 87 114.531C87 110.615 87.7188 106.833 89.1562 103.188C90.6146 99.5208 92.5729 96.3229 95.0312 93.5938C97.5104 90.8646 100.51 88.6771 104.031 87.0312C107.552 85.3854 111.26 84.5625 115.156 84.5625C116.74 84.5625 118.26 84.875 119.719 85.5C121.198 86.125 122.438 86.9271 123.438 87.9062C125.646 90.0729 126.75 92.3958 126.75 94.875C126.75 96.5833 126.312 97.7188 125.438 98.2812C125.062 98.5104 124.646 98.7188 124.188 98.9062C123.75 99.0729 123.49 99.1771 123.406 99.2188L121.438 100.125L95.5 113.688C96.0625 116.125 97.1562 118.26 98.7812 120.094C100.406 121.927 102.281 122.844 104.406 122.844C107.656 122.844 111.115 121.375 114.781 118.438C114.865 118.25 115.104 117.375 115.5 115.812C115.896 114.229 116.146 113.156 116.25 112.594H122.469L118.75 128.281C121.438 127.031 125.552 123.688 131.094 118.25V121.688C129.365 123.542 127.021 125.656 124.062 128.031C121.125 130.385 119.031 131.812 117.781 132.312C116.823 136.979 115.198 140.521 112.906 142.938C110.635 145.375 107.948 146.594 104.844 146.594ZM111.438 134.312C110.646 134.646 109.542 134.99 108.125 135.344C106.708 135.719 105.542 136.031 104.625 136.281C103.708 136.531 102.875 136.938 102.125 137.5C101.396 138.062 101.031 138.875 101.031 139.938C101.031 141.021 101.438 142.094 102.25 143.156C103.062 144.219 104.021 144.75 105.125 144.75C106.229 144.75 107.146 144.323 107.875 143.469C108.604 142.615 109.208 141.542 109.688 140.25C110.583 137.854 111.167 135.875 111.438 134.312ZM117.875 99.3125C119.354 98.6667 120.094 97.7917 120.094 96.6875C120.094 94.4583 119.448 92.3438 118.156 90.3438C116.885 88.3229 115.562 87.3125 114.188 87.3125C112.083 87.3125 110.031 87.7812 108.031 88.7188C106.031 89.6354 104.25 90.8854 102.688 92.4688C101.146 94.0312 99.7812 95.8125 98.5938 97.8125C96.1562 101.917 94.9375 106.25 94.9375 110.812L108 104.281C109.125 103.719 110.427 103.062 111.906 102.312C115.115 100.646 117.104 99.6458 117.875 99.3125ZM129.156 126.5L129.094 129.938C129.094 133.021 130.312 134.562 132.75 134.562C134.729 134.562 136.417 133.25 137.812 130.625C139.146 128.146 140.104 125.698 140.688 123.281C141.729 118.969 142.458 115.479 142.875 112.812L146.312 94.8125C146.438 94.2083 147 93.7604 148 93.4688C149.021 93.1771 149.917 93.0312 150.688 93.0312L153.438 92.9688C153.208 94.5938 152.74 97.2604 152.031 100.969C151.323 104.656 150.698 107.594 150.156 109.781H150.938C156.104 109.781 160.115 108.604 162.969 106.25C165.656 104 167 101.458 167 98.625C167 95.7917 165.708 93.3958 163.125 91.4375C160.542 89.4583 156.885 88.4688 152.156 88.4688C149.677 88.4688 147.031 88.8542 144.219 89.625C141.427 90.375 138.979 91.4896 136.875 92.9688C134.771 94.4479 133.719 96.0104 133.719 97.6562C133.719 99.2812 134.146 100.5 135 101.312C135.854 102.104 137.135 102.823 138.844 103.469C138.844 105.635 138.562 107.292 138 108.438C134.542 107.375 131.917 105.583 130.125 103.062C129.146 101.667 128.656 100.031 128.656 98.1562C128.656 96.2812 129.396 94.4375 130.875 92.625C132.375 90.8125 134.344 89.3333 136.781 88.1875C141.844 85.7708 147.604 84.5625 154.062 84.5625C162.271 84.5625 168.188 86.4167 171.812 90.125C173.896 92.2708 174.938 94.7708 174.938 97.625C174.938 99.5625 174.438 101.479 173.438 103.375C172.438 105.25 171.052 106.948 169.281 108.469C167.531 109.99 165.312 111.219 162.625 112.156C159.938 113.094 157.042 113.562 153.938 113.562C152.521 113.562 151.052 113.438 149.531 113.188C147.969 123.771 144.833 130.938 140.125 134.688C137.688 136.646 135.125 137.625 132.438 137.625C129.771 137.625 127.542 136.99 125.75 135.719C123.938 134.448 123.031 132.656 123.031 130.344C123.031 127.781 125.073 126.5 129.156 126.5Z" fill="white"/>
</g>
<defs>
<filter id="filter0_d_0_1" x="40" y="40" width="171" height="149" filterUnits="userSpaceOnUse" color-interpolation-filters="sRGB">
<feFlood flood-opacity="0" result="BackgroundImageFix"/>
<feColorMatrix in="SourceAlpha" type="matrix" values="0 0 0 0 0 0 0 0 0 0 0 0 0 0 0 0 0 0 127 0" result="hardAlpha"/>
<feOffset dy="4"/>
<feGaussianBlur stdDeviation="2"/>
<feComposite in2="hardAlpha" operator="out"/>
<feColorMatrix type="matrix" values="0 0 0 0 0 0 0 0 0 0 0 0 0 0 0 0 0 0 0.25 0"/>
<feBlend mode="normal" in2="BackgroundImageFix" result="effect1_dropShadow_0_1"/>
<feBlend mode="normal" in="SourceGraphic" in2="effect1_dropShadow_0_1" result="shape"/>
</filter>
<filter id="filter1_b_0_1" x="73.9688" y="80.5625" width="104.969" height="70.0312" filterUnits="userSpaceOnUse" color-interpolation-filters="sRGB">
<feFlood flood-opacity="0" result="BackgroundImageFix"/>
<feGaussianBlur in="BackgroundImageFix" stdDeviation="2"/>
<feComposite in2="SourceAlpha" operator="in" result="effect1_backgroundBlur_0_1"/>
<feBlend mode="normal" in="SourceGraphic" in2="effect1_backgroundBlur_0_1" result="shape"/>
</filter>
</defs>
</svg>
