<svg width="251" height="229" viewBox="0 0 251 229" fill="none" xmlns="http://www.w3.org/2000/svg">
<g filter="url(#filter0_d_0_1)">
<path d="M205.5 110.5C205.5 148.411 169.894 179.5 125.5 179.5C81.1057 179.5 45.5 148.411 45.5 110.5C45.5 72.5891 81.1057 41.5 125.5 41.5C169.894 41.5 205.5 72.5891 205.5 110.5Z" stroke="#26A8A8" stroke-width="3" shape-rendering="crispEdges"/>
<path d="M205.5 110.5C205.5 148.411 169.894 179.5 125.5 179.5C81.1057 179.5 45.5 148.411 45.5 110.5C45.5 72.5891 81.1057 41.5 125.5 41.5C169.894 41.5 205.5 72.5891 205.5 110.5Z" stroke="black" stroke-opacity="0.05" stroke-width="3" shape-rendering="crispEdges"/>
</g>
<g filter="url(#filter1_b_0_1)">
<mask id="path-2-outside-1_0_1" maskUnits="userSpaceOnUse" x="76" y="83" width="100" height="65" fill="black">
<rect fill="white" x="76" y="83" width="100" height="65"/>
<path d="M104.844 146.594C103.469 146.594 102.073 146.281 100.656 145.656C99.2604 145.052 98.0625 144.135 97.0625 142.906C96.0625 141.698 95.5625 140.479 95.5625 139.25C95.5625 136.667 96.4167 135.167 98.125 134.75L112.406 130.594C113.26 127.385 113.812 124.885 114.062 123.094L114.594 120.406C112.448 122.49 109.833 124.333 106.75 125.938C103.667 127.542 101.031 128.344 98.8438 128.344C93.9479 128.344 90.1875 124.844 87.5625 117.844L83.8125 120.031C82.6458 120.698 81.8542 121.156 81.4375 121.406C81.0208 121.656 80.625 121.875 80.25 122.062C79.5417 122.458 79.0729 122.656 78.8438 122.656C78.5938 122.656 78.3854 122.469 78.2188 122.094C78.0521 121.698 77.9688 121.198 77.9688 120.594C77.9688 119.969 78.1875 119.573 78.625 119.406C79.0625 119.135 80.0208 118.604 81.5 117.812C85.0833 115.917 86.9167 114.823 87 114.531C87 110.615 87.7188 106.833 89.1562 103.188C90.6146 99.5208 92.5729 96.3229 95.0312 93.5938C97.5104 90.8646 100.51 88.6771 104.031 87.0312C107.552 85.3854 111.26 84.5625 115.156 84.5625C116.74 84.5625 118.26 84.875 119.719 85.5C121.198 86.125 122.438 86.9271 123.438 87.9062C125.646 90.0729 126.75 92.3958 126.75 94.875C126.75 96.5833 126.312 97.7188 125.438 98.2812C125.062 98.5104 124.646 98.7188 124.188 98.9062C123.75 99.0729 123.49 99.1771 123.406 99.2188L121.438 100.125L95.5 113.688C96.0625 116.125 97.1562 118.26 98.7812 120.094C100.406 121.927 102.281 122.844 104.406 122.844C107.656 122.844 111.115 121.375 114.781 118.438C114.865 118.25 115.104 117.375 115.5 115.812C115.896 114.229 116.146 113.156 116.25 112.594H122.469L118.75 128.281C121.438 127.031 125.552 123.688 131.094 118.25V121.688C129.365 123.542 127.021 125.656 124.062 128.031C121.125 130.385 119.031 131.812 117.781 132.312C116.823 136.979 115.198 140.521 112.906 142.938C110.635 145.375 107.948 146.594 104.844 146.594ZM111.438 134.312C110.646 134.646 109.542 134.99 108.125 135.344C106.708 135.719 105.542 136.031 104.625 136.281C103.708 136.531 102.875 136.938 102.125 137.5C101.396 138.062 101.031 138.875 101.031 139.938C101.031 141.021 101.438 142.094 102.25 143.156C103.062 144.219 104.021 144.75 105.125 144.75C106.229 144.75 107.146 144.323 107.875 143.469C108.604 142.615 109.208 141.542 109.688 140.25C110.583 137.854 111.167 135.875 111.438 134.312ZM117.875 99.3125C119.354 98.6667 120.094 97.7917 120.094 96.6875C120.094 94.4583 119.448 92.3438 118.156 90.3438C116.885 88.3229 115.562 87.3125 114.188 87.3125C112.083 87.3125 110.031 87.7812 108.031 88.7188C106.031 89.6354 104.25 90.8854 102.688 92.4688C101.146 94.0312 99.7812 95.8125 98.5938 97.8125C96.1562 101.917 94.9375 106.25 94.9375 110.812L108 104.281C109.125 103.719 110.427 103.062 111.906 102.312C115.115 100.646 117.104 99.6458 117.875 99.3125ZM129.156 126.5L129.094 129.938C129.094 133.021 130.312 134.562 132.75 134.562C134.729 134.562 136.417 133.25 137.812 130.625C139.146 128.146 140.104 125.698 140.688 123.281C141.729 118.969 142.458 115.479 142.875 112.812L146.312 94.8125C146.438 94.2083 147 93.7604 148 93.4688C149.021 93.1771 149.917 93.0312 150.688 93.0312L153.438 92.9688C153.208 94.5938 152.74 97.2604 152.031 100.969C151.323 104.656 150.698 107.594 150.156 109.781H150.938C156.104 109.781 160.115 108.604 162.969 106.25C165.656 104 167 101.458 167 98.625C167 95.7917 165.708 93.3958 163.125 91.4375C160.542 89.4583 156.885 88.4688 152.156 88.4688C149.677 88.4688 147.031 88.8542 144.219 89.625C141.427 90.375 138.979 91.4896 136.875 92.9688C134.771 94.4479 133.719 96.0104 133.719 97.6562C133.719 99.2812 134.146 100.5 135 101.312C135.854 102.104 137.135 102.823 138.844 103.469C138.844 105.635 138.562 107.292 138 108.438C134.542 107.375 131.917 105.583 130.125 103.062C129.146 101.667 128.656 100.031 128.656 98.1562C128.656 96.2812 129.396 94.4375 130.875 92.625C132.375 90.8125 134.344 89.3333 136.781 88.1875C141.844 85.7708 147.604 84.5625 154.062 84.5625C162.271 84.5625 168.188 86.4167 171.812 90.125C173.896 92.2708 174.938 94.7708 174.938 97.625C174.938 99.5625 174.438 101.479 173.438 103.375C172.438 105.25 171.052 106.948 169.281 108.469C167.531 109.99 165.312 111.219 162.625 112.156C159.938 113.094 157.042 113.562 153.938 113.562C152.521 113.562 151.052 113.438 149.531 113.188C147.969 123.771 144.833 130.938 140.125 134.688C137.688 136.646 135.125 137.625 132.438 137.625C129.771 137.625 127.542 136.99 125.75 135.719C123.938 134.448 123.031 132.656 123.031 130.344C123.031 127.781 125.073 126.5 129.156 126.5Z"/>
</mask>
<path d="M104.844 146.594C103.469 146.594 102.073 146.281 100.656 145.656C99.2604 145.052 98.0625 144.135 97.0625 142.906C96.0625 141.698 95.5625 140.479 95.5625 139.25C95.5625 136.667 96.4167 135.167 98.125 134.75L112.406 130.594C113.26 127.385 113.812 124.885 114.062 123.094L114.594 120.406C112.448 122.49 109.833 124.333 106.75 125.938C103.667 127.542 101.031 128.344 98.8438 128.344C93.9479 128.344 90.1875 124.844 87.5625 117.844L83.8125 120.031C82.6458 120.698 81.8542 121.156 81.4375 121.406C81.0208 121.656 80.625 121.875 80.25 122.062C79.5417 122.458 79.0729 122.656 78.8438 122.656C78.5938 122.656 78.3854 122.469 78.2188 122.094C78.0521 121.698 77.9688 121.198 77.9688 120.594C77.9688 119.969 78.1875 119.573 78.625 119.406C79.0625 119.135 80.0208 118.604 81.5 117.812C85.0833 115.917 86.9167 114.823 87 114.531C87 110.615 87.7188 106.833 89.1562 103.188C90.6146 99.5208 92.5729 96.3229 95.0312 93.5938C97.5104 90.8646 100.51 88.6771 104.031 87.0312C107.552 85.3854 111.26 84.5625 115.156 84.5625C116.74 84.5625 118.26 84.875 119.719 85.5C121.198 86.125 122.438 86.9271 123.438 87.9062C125.646 90.0729 126.75 92.3958 126.75 94.875C126.75 96.5833 126.312 97.7188 125.438 98.2812C125.062 98.5104 124.646 98.7188 124.188 98.9062C123.75 99.0729 123.49 99.1771 123.406 99.2188L121.438 100.125L95.5 113.688C96.0625 116.125 97.1562 118.26 98.7812 120.094C100.406 121.927 102.281 122.844 104.406 122.844C107.656 122.844 111.115 121.375 114.781 118.438C114.865 118.25 115.104 117.375 115.5 115.812C115.896 114.229 116.146 113.156 116.25 112.594H122.469L118.75 128.281C121.438 127.031 125.552 123.688 131.094 118.25V121.688C129.365 123.542 127.021 125.656 124.062 128.031C121.125 130.385 119.031 131.812 117.781 132.312C116.823 136.979 115.198 140.521 112.906 142.938C110.635 145.375 107.948 146.594 104.844 146.594ZM111.438 134.312C110.646 134.646 109.542 134.99 108.125 135.344C106.708 135.719 105.542 136.031 104.625 136.281C103.708 136.531 102.875 136.938 102.125 137.5C101.396 138.062 101.031 138.875 101.031 139.938C101.031 141.021 101.438 142.094 102.25 143.156C103.062 144.219 104.021 144.75 105.125 144.75C106.229 144.75 107.146 144.323 107.875 143.469C108.604 142.615 109.208 141.542 109.688 140.25C110.583 137.854 111.167 135.875 111.438 134.312ZM117.875 99.3125C119.354 98.6667 120.094 97.7917 120.094 96.6875C120.094 94.4583 119.448 92.3438 118.156 90.3438C116.885 88.3229 115.562 87.3125 114.188 87.3125C112.083 87.3125 110.031 87.7812 108.031 88.7188C106.031 89.6354 104.25 90.8854 102.688 92.4688C101.146 94.0312 99.7812 95.8125 98.5938 97.8125C96.1562 101.917 94.9375 106.25 94.9375 110.812L108 104.281C109.125 103.719 110.427 103.062 111.906 102.312C115.115 100.646 117.104 99.6458 117.875 99.3125ZM129.156 126.5L129.094 129.938C129.094 133.021 130.312 134.562 132.75 134.562C134.729 134.562 136.417 133.25 137.812 130.625C139.146 128.146 140.104 125.698 140.688 123.281C141.729 118.969 142.458 115.479 142.875 112.812L146.312 94.8125C146.438 94.2083 147 93.7604 148 93.4688C149.021 93.1771 149.917 93.0312 150.688 93.0312L153.438 92.9688C153.208 94.5938 152.74 97.2604 152.031 100.969C151.323 104.656 150.698 107.594 150.156 109.781H150.938C156.104 109.781 160.115 108.604 162.969 106.25C165.656 104 167 101.458 167 98.625C167 95.7917 165.708 93.3958 163.125 91.4375C160.542 89.4583 156.885 88.4688 152.156 88.4688C149.677 88.4688 147.031 88.8542 144.219 89.625C141.427 90.375 138.979 91.4896 136.875 92.9688C134.771 94.4479 133.719 96.0104 133.719 97.6562C133.719 99.2812 134.146 100.5 135 101.312C135.854 102.104 137.135 102.823 138.844 103.469C138.844 105.635 138.562 107.292 138 108.438C134.542 107.375 131.917 105.583 130.125 103.062C129.146 101.667 128.656 100.031 128.656 98.1562C128.656 96.2812 129.396 94.4375 130.875 92.625C132.375 90.8125 134.344 89.3333 136.781 88.1875C141.844 85.7708 147.604 84.5625 154.062 84.5625C162.271 84.5625 168.188 86.4167 171.812 90.125C173.896 92.2708 174.938 94.7708 174.938 97.625C174.938 99.5625 174.438 101.479 173.438 103.375C172.438 105.25 171.052 106.948 169.281 108.469C167.531 109.99 165.312 111.219 162.625 112.156C159.938 113.094 157.042 113.562 153.938 113.562C152.521 113.562 151.052 113.438 149.531 113.188C147.969 123.771 144.833 130.938 140.125 134.688C137.688 136.646 135.125 137.625 132.438 137.625C129.771 137.625 127.542 136.99 125.75 135.719C123.938 134.448 123.031 132.656 123.031 130.344C123.031 127.781 125.073 126.5 129.156 126.5Z" fill="#26A8A8"/>
<path d="M100.656 145.656L101.06 144.741L101.053 144.739L100.656 145.656ZM97.0625 142.906L97.8382 142.275L97.8329 142.269L97.0625 142.906ZM98.125 134.75L98.362 135.722L98.3833 135.716L98.4044 135.71L98.125 134.75ZM112.406 130.594L112.686 131.554L113.227 131.396L113.373 130.851L112.406 130.594ZM114.062 123.094L113.081 122.9L113.076 122.928L113.072 122.956L114.062 123.094ZM114.594 120.406L115.575 120.6L116.196 117.457L113.897 119.689L114.594 120.406ZM87.5625 117.844L88.4988 117.493L88.0826 116.383L87.0586 116.98L87.5625 117.844ZM83.8125 120.031L84.3087 120.9L84.3164 120.895L83.8125 120.031ZM80.25 122.062L79.8028 121.168L79.7822 121.178L79.7622 121.19L80.25 122.062ZM78.2188 122.094L77.2971 122.482L77.3009 122.491L77.3049 122.5L78.2188 122.094ZM78.625 119.406L78.981 120.341L79.0702 120.307L79.1514 120.257L78.625 119.406ZM81.5 117.812L81.0323 116.929L81.0281 116.931L81.5 117.812ZM87 114.531L87.9615 114.806L88 114.671V114.531H87ZM89.1562 103.188L88.227 102.818L88.226 102.821L89.1562 103.188ZM95.0312 93.5938L94.291 92.9214L94.2882 92.9245L95.0312 93.5938ZM119.719 85.5L119.325 86.4192L119.33 86.4211L119.719 85.5ZM123.438 87.9062L124.138 87.1924L124.137 87.1917L123.438 87.9062ZM125.438 98.2812L125.959 99.1345L125.969 99.1286L125.978 99.1224L125.438 98.2812ZM124.188 98.9062L124.543 99.8407L124.555 99.8364L124.566 99.8318L124.188 98.9062ZM123.406 99.2188L123.824 100.127L123.839 100.12L123.853 100.113L123.406 99.2188ZM121.438 100.125L121.019 99.2166L120.996 99.2272L120.974 99.2388L121.438 100.125ZM95.5 113.688L95.0366 112.801L94.3518 113.159L94.5256 113.912L95.5 113.688ZM114.781 118.438L115.406 119.218L115.596 119.066L115.695 118.844L114.781 118.438ZM115.5 115.812L116.469 116.058L116.47 116.055L115.5 115.812ZM116.25 112.594V111.594H115.418L115.267 112.412L116.25 112.594ZM122.469 112.594L123.442 112.824L123.734 111.594H122.469V112.594ZM118.75 128.281L117.777 128.051L117.301 130.058L119.172 129.188L118.75 128.281ZM131.094 118.25H132.094V115.868L130.393 117.536L131.094 118.25ZM131.094 121.688L131.825 122.37L132.094 122.081V121.688H131.094ZM124.062 128.031L124.688 128.812L124.689 128.811L124.062 128.031ZM117.781 132.312L117.41 131.384L116.91 131.584L116.802 132.111L117.781 132.312ZM112.906 142.938L112.181 142.249L112.175 142.256L112.906 142.938ZM111.438 134.312L112.423 134.483L112.735 132.681L111.049 133.391L111.438 134.312ZM108.125 135.344L107.882 134.374L107.869 134.377L108.125 135.344ZM102.125 137.5L101.525 136.7L101.514 136.708L102.125 137.5ZM109.688 140.25L108.751 139.9L108.75 139.902L109.688 140.25ZM117.875 99.3125L118.272 100.23L118.275 100.229L117.875 99.3125ZM118.156 90.3438L117.31 90.8761L117.316 90.8863L118.156 90.3438ZM108.031 88.7188L108.448 89.6278L108.456 89.6242L108.031 88.7188ZM102.688 92.4688L101.976 91.7663L101.976 91.7664L102.688 92.4688ZM98.5938 97.8125L99.4535 98.3231L99.4536 98.323L98.5938 97.8125ZM94.9375 110.812H93.9375V112.431L95.3847 111.707L94.9375 110.812ZM111.906 102.312L112.359 103.204L112.367 103.2L111.906 102.312ZM104.844 145.594C103.624 145.594 102.365 145.317 101.06 144.741L100.253 146.571C101.78 147.245 103.313 147.594 104.844 147.594V145.594ZM101.053 144.739C99.8112 144.201 98.7413 143.385 97.8382 142.275L96.2868 143.537C97.3837 144.886 98.7096 145.903 100.259 146.574L101.053 144.739ZM97.8329 142.269C96.9395 141.189 96.5625 140.188 96.5625 139.25H94.5625C94.5625 140.77 95.1855 142.207 96.2921 143.544L97.8329 142.269ZM96.5625 139.25C96.5625 138.052 96.7632 137.225 97.0721 136.682C97.3602 136.176 97.7694 135.866 98.362 135.722L97.888 133.778C96.7723 134.051 95.9002 134.699 95.3341 135.693C94.7889 136.65 94.5625 137.865 94.5625 139.25H96.5625ZM98.4044 135.71L112.686 131.554L112.127 129.634L97.8456 133.79L98.4044 135.71ZM113.373 130.851C114.23 127.63 114.794 125.084 115.053 123.232L113.072 122.956C112.831 124.687 112.291 127.141 111.44 130.336L113.373 130.851ZM115.044 123.288L115.575 120.6L113.613 120.212L113.081 122.9L115.044 123.288ZM113.897 119.689C111.831 121.695 109.299 123.484 106.288 125.05L107.212 126.825C110.367 125.183 113.065 123.285 115.29 121.124L113.897 119.689ZM106.288 125.05C103.272 126.62 100.803 127.344 98.8438 127.344V129.344C101.26 129.344 104.061 128.464 107.212 126.825L106.288 125.05ZM98.8438 127.344C94.5727 127.344 91.0674 124.342 88.4988 117.493L86.6262 118.195C89.3076 125.345 93.3231 129.344 98.8438 129.344V127.344ZM87.0586 116.98L83.3086 119.167L84.3164 120.895L88.0664 118.708L87.0586 116.98ZM83.3164 119.163C82.1507 119.829 81.3501 120.292 80.923 120.549L81.952 122.264C82.3582 122.02 83.141 121.567 84.3086 120.899L83.3164 119.163ZM80.923 120.549C80.5249 120.788 80.1516 120.994 79.8028 121.168L80.6972 122.957C81.0984 122.756 81.5167 122.525 81.952 122.264L80.923 120.549ZM79.7622 121.19C79.4236 121.379 79.165 121.508 78.9782 121.587C78.8851 121.626 78.8233 121.647 78.7877 121.657C78.744 121.669 78.7713 121.656 78.8438 121.656V123.656C79.1763 123.656 79.5127 123.532 79.7562 123.429C80.0381 123.31 80.368 123.142 80.7378 122.935L79.7622 121.19ZM78.8438 121.656C78.9098 121.656 78.9786 121.669 79.0427 121.696C79.105 121.721 79.1467 121.752 79.169 121.772C79.206 121.806 79.1831 121.801 79.1326 121.688L77.3049 122.5C77.5193 122.982 77.9806 123.656 78.8438 123.656V121.656ZM79.1404 121.706C79.0419 121.472 78.9688 121.115 78.9688 120.594H76.9688C76.9688 121.281 77.0622 121.924 77.2971 122.482L79.1404 121.706ZM78.9688 120.594C78.9688 120.389 79.0058 120.316 79.0081 120.312C79.0083 120.311 79.0068 120.314 79.003 120.319C78.9992 120.324 78.9943 120.329 78.9887 120.333C78.9763 120.344 78.9703 120.345 78.981 120.341L78.269 118.472C77.8378 118.636 77.4856 118.932 77.2576 119.344C77.041 119.736 76.9688 120.174 76.9688 120.594H78.9688ZM79.1514 120.257C79.5571 120.005 80.4864 119.489 81.9719 118.694L81.0281 116.931C79.5553 117.719 78.5679 118.266 78.0986 118.556L79.1514 120.257ZM81.9677 118.696C83.7636 117.746 85.1358 116.989 86.0748 116.429C86.5418 116.151 86.9201 115.91 87.1952 115.711C87.3309 115.613 87.4629 115.51 87.5736 115.405C87.6289 115.353 87.6944 115.286 87.7559 115.206C87.8094 115.136 87.9065 114.999 87.9615 114.806L86.0385 114.257C86.0831 114.1 86.1561 114.005 86.1718 113.985C86.1956 113.954 86.2097 113.942 86.1999 113.951C86.1803 113.97 86.1275 114.015 86.0236 114.09C85.8195 114.237 85.4999 114.443 85.0502 114.712C84.1559 115.245 82.8197 115.983 81.0323 116.929L81.9677 118.696ZM88 114.531C88 110.74 88.6951 107.083 90.0865 103.554L88.226 102.821C86.7424 106.583 86 110.489 86 114.531H88ZM90.0855 103.557C91.5032 99.9923 93.401 96.8978 95.7743 94.263L94.2882 92.9245C91.7449 95.7481 89.7259 99.0493 88.227 102.818L90.0855 103.557ZM95.7714 94.2661C98.1568 91.6403 101.047 89.53 104.455 87.9372L103.608 86.1253C99.9735 87.8242 96.8641 90.0889 94.2911 92.9214L95.7714 94.2661ZM104.455 87.9372C107.843 86.3535 111.406 85.5625 115.156 85.5625V83.5625C111.114 83.5625 107.262 84.4174 103.608 86.1253L104.455 87.9372ZM115.156 85.5625C116.604 85.5625 117.991 85.8474 119.325 86.4191L120.113 84.5809C118.53 83.9026 116.875 83.5625 115.156 83.5625V85.5625ZM119.33 86.4211C120.71 87.0045 121.84 87.7413 122.738 88.6208L124.137 87.1917C123.035 86.1129 121.686 85.2455 120.108 84.5789L119.33 86.4211ZM122.737 88.6201C124.804 90.6481 125.75 92.7275 125.75 94.875H127.75C127.75 92.0641 126.487 89.4977 124.138 87.1924L122.737 88.6201ZM125.75 94.875C125.75 96.4671 125.338 97.1566 124.897 97.4401L125.978 99.1224C127.287 98.2809 127.75 96.6996 127.75 94.875H125.75ZM124.916 97.428C124.592 97.626 124.224 97.8109 123.809 97.9807L124.566 99.8318C125.068 99.6266 125.533 99.3948 125.959 99.1345L124.916 97.428ZM123.832 97.9718C123.418 98.1291 123.099 98.2546 122.959 98.3243L123.853 100.113C123.852 100.114 123.899 100.093 124.035 100.038C124.158 99.9887 124.327 99.9232 124.543 99.8407L123.832 97.9718ZM122.988 98.3104L121.019 99.2166L121.856 101.033L123.824 100.127L122.988 98.3104ZM120.974 99.2388L95.0366 112.801L95.9634 114.574L121.901 101.011L120.974 99.2388ZM94.5256 113.912C95.1248 116.509 96.2947 118.796 98.0329 120.757L99.5296 119.43C98.0178 117.725 97.0002 115.741 96.4744 113.463L94.5256 113.912ZM98.0329 120.757C99.8156 122.768 101.95 123.844 104.406 123.844V121.844C102.612 121.844 100.997 121.086 99.5296 119.43L98.0329 120.757ZM104.406 123.844C107.966 123.844 111.639 122.236 115.406 119.218L114.156 117.657C110.59 120.514 107.347 121.844 104.406 121.844V123.844ZM115.695 118.844C115.775 118.664 115.877 118.31 115.988 117.905C116.11 117.458 116.271 116.842 116.469 116.058L114.531 115.567C114.333 116.346 114.176 116.948 114.059 117.377C114 117.591 113.953 117.757 113.916 117.877C113.874 118.015 113.86 118.049 113.867 118.031L115.695 118.844ZM116.47 116.055C116.865 114.476 117.123 113.373 117.233 112.776L115.267 112.412C115.169 112.939 114.927 113.983 114.53 115.57L116.47 116.055ZM116.25 113.594H122.469V111.594H116.25V113.594ZM121.496 112.363L117.777 128.051L119.723 128.512L123.442 112.824L121.496 112.363ZM119.172 129.188C122.035 127.856 126.262 124.392 131.794 118.964L130.393 117.536C124.842 122.983 120.84 126.207 118.328 127.375L119.172 129.188ZM130.094 118.25V121.688H132.094V118.25H130.094ZM130.362 121.005C128.678 122.812 126.374 124.893 123.436 127.251L124.689 128.811C127.668 126.419 130.051 124.271 131.825 122.37L130.362 121.005ZM123.437 127.251C120.485 129.617 118.501 130.947 117.41 131.384L118.153 133.241C119.561 132.678 121.765 131.154 124.688 128.812L123.437 127.251ZM116.802 132.111C115.866 136.67 114.3 140.014 112.181 142.249L113.632 143.626C116.096 141.027 117.78 137.288 118.761 132.514L116.802 132.111ZM112.175 142.256C110.077 144.507 107.648 145.594 104.844 145.594V147.594C108.247 147.594 111.193 146.243 113.638 143.619L112.175 142.256ZM111.049 133.391C110.326 133.695 109.279 134.025 107.882 134.374L108.368 136.314C109.805 135.955 110.965 135.596 111.826 135.234L111.049 133.391ZM107.869 134.377C106.451 134.752 105.282 135.066 104.362 135.316L104.888 137.246C105.801 136.997 106.965 136.685 108.381 136.31L107.869 134.377ZM104.362 135.316C103.325 135.599 102.377 136.061 101.525 136.7L102.725 138.3C103.373 137.814 104.091 137.463 104.888 137.246L104.362 135.316ZM101.514 136.708C100.5 137.491 100.031 138.619 100.031 139.938H102.031C102.031 139.131 102.292 138.634 102.736 138.292L101.514 136.708ZM100.031 139.938C100.031 141.288 100.542 142.569 101.456 143.764L103.044 142.549C102.333 141.619 102.031 140.754 102.031 139.938H100.031ZM101.456 143.764C102.413 145.015 103.643 145.75 105.125 145.75V143.75C104.399 143.75 103.712 143.422 103.044 142.549L101.456 143.764ZM105.125 145.75C106.528 145.75 107.72 145.19 108.636 144.118L107.114 142.819C106.572 143.455 105.931 143.75 105.125 143.75V145.75ZM108.636 144.118C109.456 143.157 110.114 141.975 110.625 140.598L108.75 139.902C108.303 141.108 107.752 142.072 107.114 142.819L108.636 144.118ZM110.624 140.6C111.53 138.177 112.137 136.132 112.423 134.483L110.452 134.142C110.196 135.618 109.636 137.531 108.751 139.9L110.624 140.6ZM118.275 100.229C119.924 99.509 121.094 98.3653 121.094 96.6875H119.094C119.094 97.2181 118.784 97.8243 117.475 98.396L118.275 100.229ZM121.094 96.6875C121.094 94.2526 120.385 91.9514 118.996 89.8012L117.316 90.8863C118.511 92.7361 119.094 94.6641 119.094 96.6875H121.094ZM119.003 89.8114C117.684 87.7145 116.1 86.3125 114.188 86.3125V88.3125C115.025 88.3125 116.087 88.9314 117.31 90.8761L119.003 89.8114ZM114.188 86.3125C111.929 86.3125 109.733 86.8167 107.607 87.8133L108.456 89.6242C110.33 88.7458 112.237 88.3125 114.188 88.3125V86.3125ZM107.615 87.8097C105.503 88.7774 103.622 90.0978 101.976 91.7663L103.399 93.1712C104.878 91.673 106.559 90.4935 108.448 89.6278L107.615 87.8097ZM101.976 91.7664C100.374 93.3899 98.9603 95.2364 97.7339 97.302L99.4536 98.323C100.602 96.3886 101.918 94.6726 103.399 93.1711L101.976 91.7664ZM97.734 97.3019C95.2091 101.553 93.9375 106.062 93.9375 110.812H95.9375C95.9375 106.438 97.1034 102.28 99.4535 98.3231L97.734 97.3019ZM95.3847 111.707L108.447 105.176L107.553 103.387L94.4903 109.918L95.3847 111.707ZM108.447 105.176C109.574 104.612 110.878 103.955 112.358 103.204L111.454 101.421C109.976 102.17 108.676 102.825 107.553 103.387L108.447 105.176ZM112.367 103.2C115.589 101.526 117.541 100.546 118.272 100.23L117.478 98.3946C116.667 98.7454 114.64 99.7654 111.445 101.425L112.367 103.2ZM129.156 126.5L130.156 126.518L130.175 125.5H129.156V126.5ZM129.094 129.938L128.094 129.919L128.094 129.928V129.938H129.094ZM137.812 130.625L136.932 130.151L136.93 130.156L137.812 130.625ZM140.688 123.281L139.715 123.046L139.715 123.047L140.688 123.281ZM142.875 112.812L141.893 112.625L141.89 112.641L141.887 112.658L142.875 112.812ZM146.312 94.8125L145.333 94.6099L145.332 94.6174L145.33 94.6249L146.312 94.8125ZM148 93.4688L147.725 92.5072L147.72 92.5087L148 93.4688ZM150.688 93.0312V94.0312H150.699L150.71 94.031L150.688 93.0312ZM153.438 92.9688L154.428 93.1084L154.592 91.9422L153.415 91.969L153.438 92.9688ZM152.031 100.969L153.013 101.157L153.013 101.156L152.031 100.969ZM150.156 109.781L149.186 109.541L148.878 110.781H150.156V109.781ZM162.969 106.25L163.605 107.021L163.611 107.017L162.969 106.25ZM163.125 91.4375L162.517 92.2313L162.521 92.2344L163.125 91.4375ZM144.219 89.625L144.478 90.5908L144.483 90.5894L144.219 89.625ZM135 101.312L134.311 102.037L134.32 102.046L135 101.312ZM138.844 103.469H139.844V102.778L139.197 102.533L138.844 103.469ZM138 108.438L137.706 109.393L138.522 109.644L138.898 108.878L138 108.438ZM130.125 103.062L129.306 103.637L129.31 103.642L130.125 103.062ZM130.875 92.625L130.105 91.9874L130.1 91.9927L130.875 92.625ZM136.781 88.1875L137.207 89.0925L137.212 89.0899L136.781 88.1875ZM171.812 90.125L172.53 89.4284L172.528 89.426L171.812 90.125ZM173.438 103.375L174.32 103.846L174.322 103.842L173.438 103.375ZM169.281 108.469L168.63 107.71L168.625 107.714L169.281 108.469ZM149.531 113.188L149.693 112.201L148.69 112.036L148.542 113.041L149.531 113.188ZM140.125 134.688L139.502 133.905L139.499 133.908L140.125 134.688ZM125.75 135.719L126.329 134.903L126.324 134.9L125.75 135.719ZM128.156 126.482L128.094 129.919L130.094 129.956L130.156 126.518L128.156 126.482ZM128.094 129.938C128.094 131.584 128.415 133.003 129.223 134.026C130.067 135.094 131.306 135.562 132.75 135.562V133.562C131.756 133.562 131.167 133.26 130.792 132.786C130.382 132.267 130.094 131.374 130.094 129.938H128.094ZM132.75 135.562C135.267 135.562 137.222 133.865 138.695 131.094L136.93 130.156C135.611 132.635 134.192 133.562 132.75 133.562V135.562ZM138.693 131.099C140.062 128.554 141.054 126.026 141.66 123.516L139.715 123.047C139.155 125.37 138.23 127.738 136.932 130.151L138.693 131.099ZM141.66 123.516C142.704 119.192 143.44 115.672 143.863 112.967L141.887 112.658C141.476 115.286 140.754 118.746 139.715 123.046L141.66 123.516ZM143.857 113L147.295 95.0001L145.33 94.6249L141.893 112.625L143.857 113ZM147.292 95.0151C147.3 94.9757 147.379 94.6915 148.28 94.4288L147.72 92.5087C146.621 92.8293 145.575 93.4409 145.333 94.6099L147.292 95.0151ZM148.275 94.4303C149.237 94.1553 150.037 94.0312 150.688 94.0312V92.0312C149.796 92.0312 148.804 92.1989 147.725 92.5072L148.275 94.4303ZM150.71 94.031L153.46 93.9685L153.415 91.969L150.665 92.0315L150.71 94.031ZM152.447 92.8291C152.222 94.4279 151.757 97.0737 151.049 100.781L153.013 101.156C153.722 97.4471 154.195 94.7596 154.428 93.1084L152.447 92.8291ZM151.049 100.78C150.342 104.46 149.721 107.378 149.186 109.541L151.127 110.022C151.675 107.809 152.304 104.852 153.013 101.157L151.049 100.78ZM150.156 110.781H150.938V108.781H150.156V110.781ZM150.938 110.781C156.245 110.781 160.512 109.572 163.605 107.021L162.332 105.479C159.717 107.636 155.963 108.781 150.938 108.781V110.781ZM163.611 107.017C166.466 104.626 168 101.823 168 98.625H166C166 101.093 164.846 103.374 162.327 105.483L163.611 107.017ZM168 98.625C168 95.4307 166.521 92.757 163.729 90.6406L162.521 92.2344C164.896 94.0347 166 96.1526 166 98.625H168ZM163.733 90.6437C160.912 88.4822 157.009 87.4688 152.156 87.4688V89.4688C156.762 89.4688 160.171 90.4344 162.517 92.2313L163.733 90.6437ZM152.156 87.4688C149.574 87.4688 146.838 87.8702 143.954 88.6606L144.483 90.5894C147.224 89.8382 149.78 89.4688 152.156 89.4688V87.4688ZM143.959 88.6592C141.068 89.4359 138.511 90.5964 136.3 92.1507L137.45 93.7868C139.447 92.3828 141.786 91.3141 144.478 90.5908L143.959 88.6592ZM136.3 92.1507C134.084 93.7085 132.719 95.5332 132.719 97.6562H134.719C134.719 96.4877 135.458 95.1874 137.45 93.7868L136.3 92.1507ZM132.719 97.6562C132.719 99.4485 133.192 100.973 134.311 102.037L135.689 100.588C135.099 100.027 134.719 99.114 134.719 97.6562H132.719ZM134.32 102.046C135.307 102.961 136.722 103.736 138.49 104.404L139.197 102.533C137.549 101.91 136.401 101.248 135.68 100.579L134.32 102.046ZM137.844 103.469C137.844 105.575 137.566 107.052 137.102 107.997L138.898 108.878C139.559 107.531 139.844 105.696 139.844 103.469H137.844ZM138.294 107.482C135.009 106.472 132.583 104.795 130.94 102.483L129.31 103.642C131.25 106.371 134.075 108.278 137.706 109.393L138.294 107.482ZM130.944 102.488C130.094 101.277 129.656 99.8472 129.656 98.1562H127.656C127.656 100.215 128.197 102.056 129.306 103.637L130.944 102.488ZM129.656 98.1562C129.656 96.5641 130.279 94.9366 131.65 93.2573L130.1 91.9927C128.512 93.9384 127.656 95.9984 127.656 98.1562H129.656ZM131.645 93.2626C133.039 91.5789 134.883 90.1847 137.207 89.0925L136.356 87.2825C133.804 88.4819 131.711 90.0461 130.105 91.9874L131.645 93.2626ZM137.212 89.0899C142.121 86.7465 147.731 85.5625 154.062 85.5625V83.5625C147.478 83.5625 141.566 84.7951 136.35 87.2851L137.212 89.0899ZM154.062 85.5625C162.154 85.5625 167.745 87.395 171.097 90.824L172.528 89.426C168.63 85.4384 162.388 83.5625 154.062 83.5625V85.5625ZM171.095 90.8216C173.007 92.7907 173.938 95.0444 173.938 97.625H175.938C175.938 94.4973 174.785 91.751 172.53 89.4284L171.095 90.8216ZM173.938 97.625C173.938 99.3832 173.485 101.141 172.553 102.908L174.322 103.842C175.39 101.817 175.938 99.7418 175.938 97.625H173.938ZM172.555 102.904C171.619 104.66 170.316 106.262 168.63 107.71L169.933 109.227C171.788 107.634 173.256 105.84 174.32 103.846L172.555 102.904ZM168.625 107.714C166.99 109.135 164.89 110.307 162.296 111.212L162.954 113.1C165.735 112.13 168.072 110.844 169.937 109.224L168.625 107.714ZM162.296 111.212C159.723 112.109 156.94 112.562 153.938 112.562V114.562C157.144 114.562 160.152 114.078 162.954 113.1L162.296 111.212ZM153.938 112.562C152.58 112.562 151.165 112.443 149.693 112.201L149.369 114.174C150.939 114.432 152.462 114.562 153.938 114.562V112.562ZM148.542 113.041C146.99 123.551 143.906 130.398 139.502 133.905L140.748 135.47C145.761 131.477 148.947 123.99 150.521 113.334L148.542 113.041ZM139.499 133.908C137.208 135.748 134.861 136.625 132.438 136.625V138.625C135.389 138.625 138.167 137.544 140.751 135.467L139.499 133.908ZM132.438 136.625C129.933 136.625 127.918 136.03 126.329 134.903L125.171 136.534C127.166 137.949 129.609 138.625 132.438 138.625V136.625ZM126.324 134.9C124.792 133.826 124.031 132.347 124.031 130.344H122.031C122.031 132.965 123.083 135.07 125.176 136.538L126.324 134.9ZM124.031 130.344C124.031 129.38 124.386 128.752 125.094 128.308C125.88 127.815 127.187 127.5 129.156 127.5V125.5C127.042 125.5 125.287 125.826 124.031 126.614C122.697 127.451 122.031 128.745 122.031 130.344H124.031Z" fill="black" fill-opacity="0.5" mask="url(#path-2-outside-1_0_1)"/>
</g>
<defs>
<filter id="filter0_d_0_1" x="40" y="40" width="171" height="149" filterUnits="userSpaceOnUse" color-interpolation-filters="sRGB">
<feFlood flood-opacity="0" result="BackgroundImageFix"/>
<feColorMatrix in="SourceAlpha" type="matrix" values="0 0 0 0 0 0 0 0 0 0 0 0 0 0 0 0 0 0 127 0" result="hardAlpha"/>
<feOffset dy="4"/>
<feGaussianBlur stdDeviation="2"/>
<feComposite in2="hardAlpha" operator="out"/>
<feColorMatrix type="matrix" values="0 0 0 0 0 0 0 0 0 0 0 0 0 0 0 0 0 0 0.25 0"/>
<feBlend mode="normal" in2="BackgroundImageFix" result="effect1_dropShadow_0_1"/>
<feBlend mode="normal" in="SourceGraphic" in2="effect1_dropShadow_0_1" result="shape"/>
</filter>
<filter id="filter1_b_0_1" x="73.9688" y="80.5625" width="104.969" height="70.0312" filterUnits="userSpaceOnUse" color-interpolation-filters="sRGB">
<feFlood flood-opacity="0" result="BackgroundImageFix"/>
<feGaussianBlur in="BackgroundImageFix" stdDeviation="2"/>
<feComposite in2="SourceAlpha" operator="in" result="effect1_backgroundBlur_0_1"/>
<feBlend mode="normal" in="SourceGraphic" in2="effect1_backgroundBlur_0_1" result="shape"/>
</filter>
</defs>
</svg>
